<svg xmlns="http://www.w3.org/2000/svg" viewBox="0 0 512 512" fill="#eb1000">
    <path
        d="m327.86,311.54l-112.26-112.26c-14.26-14.26-33.59-22.27-53.74-22.27l-140.52-.02c-4.05,0-7.34,3.28-7.34,7.32v131.36c0,4.05,3.29,7.34,7.34,7.34h74.32c4.05,0,7.34-3.29,7.34-7.34v-94.31c0-6.54,7.91-9.81,12.53-5.19l85.57,85.57c14.24,14.24,33.54,22.25,53.66,22.27l67.91.07c6.55,0,9.83-7.91,5.2-12.54Z" />
    <path class="cls-2"
        d="m370.22,301.67l-112.14-112.14c-4.62-4.62-1.35-12.52,5.19-12.52h67.74c20.14,0,39.46,8.01,53.71,22.26l112.2,112.2c4.63,4.63,1.35,12.54-5.2,12.54l-67.86-.07c-20.11-.02-39.4-8.03-53.63-22.26Z" />
</svg>